<svg xml:space="preserve" style="enable-background:new 0 0 1000 1000;" viewBox="0 0 1000 1000" height="1000px" width="1000px" y="0px" x="0px" id="Capa_1" version="1.1" xmlns:xlink="http://www.w3.org/1999/xlink" xmlns="http://www.w3.org/2000/svg"> <g> <path d="M745.2,399.7c-0.3,8.2-0.5,15.1-1,21.9c-0.3,4.5-0.9,9.1-1.6,13.6c-1.4,8-2.8,15.9-4.5,23.8c-1.1,4.9-2.5,9.8-4.1,14.5 c-2.2,6.7-4.5,13.5-7.3,20c-3.3,7.7-6.9,15.3-10.7,22.8c-5,9.8-11.1,19.1-17.6,28c-12.4,17-26.7,32.3-43,45.6 c-12.9,10.5-26.7,19.8-41.5,27.5c-12.4,6.5-25.1,11.9-38.4,16.1c-6.1,1.9-12.3,3.6-18.4,5.3c-6.7,1.9-13.3,4.1-19.1,8.1 c-4.8,3.2-8.3,7.5-10.8,12.6c-2.2,4.8-4.2,9.7-6.1,14.6c-2.2,5.7-5.3,10.7-9.9,14.8c-4.1,3.8-9,4.4-14.1,3.3 c-6.2-1.3-11-4.7-13.9-10.4c-1.7-3.4-3.2-7-4.7-10.5c-1.1-2.5-2-5-3-7.6c-4.3-11-12.2-18.4-23.4-22.2c-6.4-2.2-13-3.9-19.5-5.8 c-21.6-6.2-41.9-15.1-61-27c-22-13.7-41.3-30.4-58-50.2c-24.5-28.8-41.4-61.6-50.8-98.2c-3.5-13.5-5.6-27.2-6.6-41.2 c-1.1-14.8-0.6-29.6,0.7-44.3c2.6-30.3,11.4-58.8,25.1-85.8c17.5-34.6,42.2-63.1,73.3-86.3c15.4-11.5,32.1-20.6,49.8-28.2 c18.8-8.1,38.4-13.4,58.7-16.5c16.7-2.6,33.4-3.1,50.2-2.2c32.6,1.8,63.6,9.9,92.9,24.1c26.7,12.9,50.4,30,70.7,51.6 c18.5,19.6,33.6,41.7,45,66.2c5.8,12.4,10.4,25.3,14.1,38.5c3.7,13.3,6.1,26.8,7.3,40.5C744.7,385,744.9,393,745.2,399.7z M666.3,396.5c-0.1-3.1-0.3-7.8-0.6-12.5c-0.6-8.1-1.6-16.1-3.6-23.9c-5.7-22.5-15.4-42.9-29.4-61.4c-16.7-22-37.2-39.1-62.2-50.7 c-17.3-8.1-35.5-13.2-54.6-14.7c-16.3-1.3-32.6-0.9-48.7,2.5c-9.6,2-19.1,4.7-28.2,8.4c-16.1,6.6-31,15.2-44.4,26.3 c-10.5,8.7-19.8,18.4-27.8,29.3c-9.8,13.2-17.5,27.5-23,43c-4.7,13.3-7.8,26.9-9,40.9c-1.4,15.9-0.7,31.8,2.5,47.5 c1.9,9.7,4.7,19.1,8.3,28.3c3.9,10,8.9,19.5,14.7,28.5c22.6,35.1,54.3,58.1,93.9,70.4c4.4,1.4,8.9,2.6,13.2,4.2 c6.5,2.4,11.1,6.9,14,13.1c1.4,3,2.5,6.2,3.8,9.3c0.9,2.2,1.8,4.5,3.2,6.4c1.8,2.5,3.8,5,6.9,6.1c6.1,2.3,11.1,0.8,15.3-4.4 c1.5-1.8,2.5-4.1,3.5-6.2c1.6-3.3,3-6.7,4.3-10.1c2.7-6.8,7.6-11.3,14.3-14c2.8-1.1,5.7-2.1,8.6-3c7.4-2.4,14.8-4.5,22-7.5 c18.1-7.6,34.6-17.6,49-31c15.2-14.1,27.6-30.2,36.9-48.7c6.3-12.6,10.7-26,13.8-39.8C665.4,421.3,666.1,409.8,666.3,396.5z"></path> <path d="M260.7,795.8c-0.4,9.3-4.3,19.2-12.2,27.4c-5.7,5.9-12.5,10-20.4,11.9c-3.5,0.8-5.9,2.6-7,6.1c-0.2,0.7-0.6,1.5-1.1,2.1 c-1.5,2-3.7,2-5.2,0.1c-0.6-0.8-1.2-1.7-1.5-2.7c-1-3-3.1-4.8-6.1-5.4c-0.5-0.1-1.1-0.3-1.6-0.5c-16.3-4.3-29.7-19.4-31.3-37.6 c-2.1-23.8,14.9-42.5,34.7-46.5c19.6-4,40.9,7,48.7,26.3C259.7,782.4,260.6,788,260.7,795.8z M247.9,792.7 c0.2-18.2-16.2-33-35-30.3c-17.9,2.6-29,19.2-25.9,35.6c2.3,12.2,9.4,20.4,21.5,24c2.7,0.8,4.8,2.2,5.8,4.9c0.2,0.5,0.4,1,0.7,1.5 c1,1.6,2.8,1.7,4,0.3c0.5-0.6,0.9-1.3,1.2-2.1c0.8-2.2,2.3-3.6,4.6-4.1c0.6-0.1,1.2-0.4,1.8-0.6 C239.9,817.2,247.6,806.5,247.9,792.7z"></path> <path d="M491.4,774.4c0,2.8,0,5.6,0,8.4c0,15.8,0,31.5,0,47.3c0,0.7,0,1.4-0.1,2.2c-0.2,1.1-0.9,2-2,2c-2.8,0.1-5.6,0-8.4-0.1 c-0.4,0-0.9-0.3-1.5-0.6c-0.1-1.1-0.2-2.2-0.2-3.3c0-21.8,0-43.7-0.1-65.5c0-4.2,0-8.3-0.1-12.5c0-0.6,0-1.1,0.1-1.7 c0.3-1.5,1.1-2.2,2.6-2.2c1.8-0.1,3.2,0.8,4.4,2.1c7.8,9.1,15.6,18.2,23.5,27.2c8.4,9.6,16.9,19.2,25.3,28.8 c0.4,0.4,0.8,0.8,1.5,1.6c0.1-1,0.2-1.6,0.2-2.2c0-13.8,0.1-27.7,0.1-41.5c0-3.8-0.1-7.5-0.1-11.3c0-1.8,0.8-2.9,2.5-3.4 c2.8-0.8,5.6-0.1,8.3,0.4c1.1,0.2,1.8,1,1.7,2.3c-0.1,1.2,0,2.4,0,3.6c0,22.8,0,45.6,0,68.4c0,2.6,0,5.3,0,7.9 c0,1.2-0.1,2.5-1.6,2.9c-1.5,0.4-3.2,0.7-4.5-0.6c-0.7-0.7-1.4-1.6-2-2.4c-11.8-14-23.6-28-35.4-42c-4.1-4.9-8.3-9.7-12.5-14.6 c-0.5-0.5-0.9-1-1.4-1.5C491.7,774.3,491.5,774.4,491.4,774.4z"></path> <path d="M326.4,800.5c1.8,3.4,3.6,6.7,5.3,10c3.4,6.3,6.8,12.7,10.2,19c0.2,0.4,0.4,0.8,0.7,1.3c0.8,1.8,0.1,3.5-2,3.6 c-3.1,0.2-6.2,0.1-9.4,0c-1.4,0-2-1.2-2.6-2.2c-1.2-2.3-2.4-4.7-3.6-7.1c-3.4-6.9-7-13.9-10.3-20.9c-1-2.2-2.3-3-4.8-2.9 c-4.4,0.2-8.8,0.1-13.2,0.1c-0.5,0-0.9,0.1-1.6,0.1c0,0.9-0.1,1.8-0.1,2.6c0,8.9,0,17.8,0,26.6c0,2.9-0.7,3.7-3.7,3.7 c-1.9,0-3.8,0-5.8,0c-2.2,0-3.1-0.8-3.1-3c0-2.8,0.1-5.6,0.1-8.4c0-21.6,0-43.2,0-64.8c0-1.8-0.1-3.5-0.1-5.3 c0.1-2.4,0.8-3.2,3.2-3.2c10.6,0,21.1,0,31.7,0c4.4,0,8.6,1.2,12.5,3.1c14.7,7.2,20.4,28.6,5.2,41.8c-2.3,2-5.1,3.3-7.6,5 C327.2,799.8,326.9,800.1,326.4,800.5z M295.9,761.8c-0.9,2.6-1.1,26.2-0.3,28.8c7.3,0,14.6,0,22,0c5.3,0,9-2.6,11.5-6.9 c2.7-4.5,3.1-9.4,0.7-14c-2.6-5-6.9-7.9-12.8-7.9c-6.3-0.1-12.6-0.1-18.9-0.1C297.5,761.7,296.7,761.8,295.9,761.8z"></path> <path d="M414,789.6c1.1,0.1,2,0.2,3,0.2c9.2,0,18.4,0,27.6,0c3.1,0,3.8,0.7,3.9,3.8c0,1.4,0,2.9-0.1,4.3c-0.1,2.5-0.8,3.3-3.3,3.3 c-7.9,0-15.8,0-23.7,0c-1.9,0-3.8,0.1-5.7,0.3c-1.9,0.2-1.9,0.4-1.9,2.3c0,5.5,0,11,0,16.6c0,2.3,0.1,2.4,2.4,2.4 c11.5,0.1,23,0.2,34.5,0.3c0.5,0,1,0,1.4,0c1,0,1.7,0.5,2,1.4c0.8,2.7,0.5,5.4,0,8.1c-0.2,1-1.1,1.5-2.2,1.6 c-0.6,0.1-1.3,0.1-1.9,0.1c-15.1,0-30.2,0-45.3,0c-2.3,0-3.2-0.7-3.4-3.1c-0.1-1.8-0.1-3.7-0.1-5.5c0-23.8,0-47.5,0-71.3 c0-4.6,0.4-5,4.9-5c13.3,0.1,26.5,0.1,39.8,0.2c1.1,0,2.2-0.1,3.3-0.3c3.3-0.4,5.1,1,5.3,4.3c0.1,1.7,0,3.4-0.2,5 c-0.2,1.5-1,2.2-2.5,2.4c-1.1,0.1-2.2,0.1-3.4,0.1c-10.8,0-21.6,0-32.4,0c-2.1,0-2.4,0.2-2.4,2.3c0,8.2,0.1,16.5,0.2,24.7 C413.8,788.6,413.9,788.9,414,789.6z"></path> <path d="M786.9,772.4c-1.3,2.9-2.4,5.2-3.5,7.5c-6.6,14.7-13.1,29.3-19.7,44c-1.2,2.7-2.5,5.4-3.6,8.1c-0.7,1.6-1.8,2.5-3.5,2.5 c-2.3,0-4.6,0.1-7,0c-2-0.1-2.9-1.6-2.1-3.6c0.5-1.3,1.2-2.6,1.8-3.9c9.7-21.2,19.4-42.5,29.1-63.7c1.9-4.1,3.9-8.2,5.9-12.4 c0.5-1.1,1.1-2.1,2.5-2.2c1.6-0.1,2.6,0.7,3.2,2c1.4,2.9,2.7,5.8,4,8.7c6.8,15,13.6,30,20.4,45c3.8,8.3,7.6,16.6,11.4,24.9 c1.8,3.9,1.1,5.1-3.2,5.2c-1.9,0-3.8-0.1-5.8-0.1c-1.1,0-1.8-0.5-2.3-1.4c-0.7-1.2-1.3-2.4-1.9-3.6c-8.1-18-16.1-36.1-24.1-54.1 C788.1,774.5,787.6,773.7,786.9,772.4z"></path> <path d="M691,795.6c0.1-10.6,2.4-18.9,7.2-26.3c5.8-8.9,13.9-15,24-18.5c9.9-3.4,19.6-3,29.4,0.6c0.3,0.1,0.6,0.2,0.9,0.4 c2.7,1.2,3,2.1,1.7,4.8c-0.9,1.8-1.7,3.6-2.6,5.4c-1.1,2-1.5,2.2-3.6,1.4c-5.1-1.9-10.4-2.6-15.8-1.9c-12.2,1.5-20.6,8.2-25.1,19.6 c-6.1,15.5,0.5,31.8,13.8,40.1c2.9,1.8,2.9,2,1.5,5.1c-0.9,2-1.9,4.1-2.9,6.1c-1.1,2.2-1.8,2.4-4,1.2c-12-6.3-19.6-16.1-23-29.2 C691.6,800.8,690.9,797.4,691,795.6z"></path> <path d="M595.7,761.2c-5.6,0-10.8,0-16,0c-0.8,0-1.6,0-2.4-0.1c-2.7-0.1-3-0.5-3.1-3.1c-0.1-1.4-0.2-2.9-0.2-4.3 c0-3.3,0.9-4.1,4.1-4.2c8,0,16,0,24,0c7.4,0,14.9,0,22.3,0c1.2,0,2.4,0.1,3.6,0.3c1.8,0.3,2.4,1.1,2.5,3c0.1,1.7,0,3.4,0,5 c0,2.5-0.8,3.4-3.3,3.4c-3,0.1-5.9,0-8.9,0c-2.4,0-4.8,0-7.2,0c-2.6,0-2.7,0.1-2.7,2.7c0,18.6,0,37.3,0,55.9c0,3.5,0,7,0.1,10.6 c0,3.1-0.7,3.8-3.8,3.9c-1.7,0-3.4,0-5,0c-3.1,0-3.7-0.7-3.7-3.9c0-2.4,0-4.8,0-7.2c-0.1-19.5-0.2-39-0.2-58.6 C595.9,763.6,595.8,762.5,595.7,761.2z"></path> <path d="M377.2,792.3c0,12.7,0,25.4,0,38.1c0,3.3-0.7,3.9-3.9,3.9c-1.8,0-3.5,0-5.3,0c-2.5-0.1-3.5-0.9-3.6-3.5 c-0.1-2.9,0.1-5.7,0.1-8.6c0-22.9-0.1-45.7-0.1-68.6c0-3.1,1.1-4.1,4.2-4.1c1.4,0,2.9-0.1,4.3,0c3.6,0.2,4.3,1,4.3,4.6 C377.2,766.9,377.2,779.6,377.2,792.3C377.2,792.3,377.2,792.3,377.2,792.3z"></path> <path d="M655.5,792.3c0-9.2,0-18.4,0-27.6c0-3.5,0-7,0-10.5c0-3.6,1-4.6,4.5-4.6c1.7,0,3.4,0,5,0.1c2.5,0.2,3.2,1.1,3.2,3.5 c0.1,3.7,0.1,7.4,0.1,11c0,15.9,0.1,31.8,0.1,47.7c0,6-0.1,12-0.2,18c0,0.6,0,1.3-0.1,1.9c-0.2,1.5-0.8,2.2-2.3,2.3 c-2.6,0.1-5.3,0.1-7.9,0c-2-0.1-2.4-0.7-2.4-3.1C655.6,818.2,655.6,805.3,655.5,792.3C655.5,792.3,655.5,792.3,655.5,792.3z"></path> </g> </svg>
